<svg version="1.1" viewBox="0.0 0.0 240.00787401574803 100.0" fill="none" stroke="none" stroke-linecap="square" stroke-miterlimit="10" xmlns:xlink="http://www.w3.org/1999/xlink" xmlns="http://www.w3.org/2000/svg"><clipPath id="p.0"><path d="m0 0l240.00787 0l0 100.0l-240.00787 0l0 -100.0z" clip-rule="nonzero"/></clipPath><g clip-path="url(#p.0)"><path fill="#000000" fill-opacity="0.0" d="m0 0l240.00787 0l0 100.0l-240.00787 0z" fill-rule="evenodd"/><path fill="#000000" fill-opacity="0.0" d="m0.015748031 0l239.90552 0l0 100.0l-239.90552 0z" fill-rule="evenodd"/><path fill="#000000" d="m12.35669 24.414368l7.906251 0l3.65625 40.171875l0.15625 0l3.875 -40.171875l8.968748 0l3.875 40.171875l0.15625 0l3.65625 -40.171875l7.09375 0l-5.3125 52.265625l-10.21875 0l-3.734375 -35.234375l-0.15625 0l-3.734373 35.234375l-10.890625 0l-5.296876 -52.265625zm43.521027 0l22.390625 0l0 7.46875l-14.1875 0l0 13.8125l11.28125 0l0 7.46875l-11.28125 0l0 16.046875l14.1875 0l0 7.46875l-22.390625 0l0 -52.265625zm37.921432 53.015625q-5.96875 0 -9.03125 -3.390625q-3.0625 -3.40625 -3.0625 -9.75l0 -2.984375l7.765625 0l0 3.578125q0 5.078125 4.25 5.078125q2.09375 0 3.171875 -1.234375q1.09375 -1.234375 1.09375 -3.984375q0 -3.296875 -1.5 -5.796875q-1.484375 -2.5 -5.515625 -6.0q-5.078125 -4.484375 -7.09375 -8.109375q-2.015625 -3.625 -2.015625 -8.171875q0 -6.203125 3.125 -9.59375q3.140625 -3.390625 9.109375 -3.390625q5.90625 0 8.921875 3.390625q3.03125 3.390625 3.03125 9.75l0 2.15625l-7.765625 0l0 -2.6875q0 -2.6875 -1.046875 -3.921875q-1.046875 -1.234375 -3.0625 -1.234375q-4.109375 0 -4.109375 5.015625q0 2.828125 1.53125 5.296875q1.53125 2.453125 5.5625 5.96875q5.15625 4.484375 7.09375 8.140625q1.9375 3.65625 1.9375 8.578125q0 6.421875 -3.171875 9.859375q-3.171875 3.4375 -9.21875 3.4375zm25.678375 0q-4.46875 0 -6.796875 -3.0625q-2.3125 -3.0625 -2.3125 -8.890625l0 -5.4375q0 -4.109375 1.421875 -6.875q1.421875 -2.765625 4.625 -4.03125l0 -0.15625q-2.90625 -1.1875 -4.296875 -3.828125q-1.375 -2.65625 -1.375 -6.84375l0 -0.96875q0 -6.34375 3.0625 -9.625q3.0625 -3.296875 9.1875 -3.296875l9.40625 0l0 7.46875l-9.265625 0q-2.015625 0 -3.09375 1.203125q-1.078125 1.1875 -1.078125 3.875l0 3.21875q0 2.984375 1.234375 4.25q1.234375 1.265625 3.6875 1.265625l3.21875 0l0 -5.828125l8.0625 0l0 5.828125l2.3125 0l0 7.46875l-2.3125 0l0 17.171875q0 2.234375 0.140625 3.625q0.15625 1.375 0.75 2.71875l-8.203125 0q-0.609375 -1.640625 -0.75 -4.109375l-0.15625 0q-1.34375 2.46875 -3.09375 3.671875q-1.75 1.1875 -4.375 1.1875zm3.0625 -7.46875q3.890625 0 4.5625 -4.703125l0 -12.09375l-3.140625 0q-2.84375 0 -4.109375 1.53125q-1.265625 1.53125 -1.265625 5.109375l0 5.296875q0 2.625 1.046875 3.75q1.046875 1.109375 2.90625 1.109375zm21.428528 7.015625q-2.234375 0 -3.8125 -0.296875l0 -7.46875q1.203125 0.296875 2.6875 0.296875q2.46875 0 3.65625 -1.21875q1.203125 -1.234375 1.203125 -3.78125l0 -40.09375l8.21875 0l0 39.875q0 6.421875 -2.953125 9.5625q-2.953125 3.125 -9.0 3.125zm24.040817 -52.5625l11.125 0l8.515625 52.265625l-8.21875 0l-1.484375 -10.375l0 0.140625l-9.34375 0l-1.484375 10.234375l-7.625 0l8.515625 -52.265625zm8.953125 34.953125l-3.65625 -25.84375l-0.140625 0l-3.59375 25.84375l7.390625 0zm14.640274 -34.953125l11.71875 0l5.234375 37.40625l0.140625 0l5.234375 -37.40625l11.71875 0l0 52.265625l-7.765625 0l0 -39.5625l-0.15625 0l-5.96875 39.5625l-6.875 0l-5.96875 -39.5625l-0.140625 0l0 39.5625l-7.171875 0l0 -52.265625z" fill-rule="nonzero"/></g></svg>